<?xml version="1.0" encoding="utf-8"?>
<!-- Generator: Adobe Illustrator 16.0.3, SVG Export Plug-In . SVG Version: 6.00 Build 0)  -->
<!DOCTYPE svg PUBLIC "-//W3C//DTD SVG 1.1//EN" "http://www.w3.org/Graphics/SVG/1.1/DTD/svg11.dtd">
<svg version="1.1" id="name_1_" xmlns="http://www.w3.org/2000/svg" xmlns:xlink="http://www.w3.org/1999/xlink" x="0px" y="0px"
	 width="2000px" height="340.483px" viewBox="0 0 2000 340.483" enable-background="new 0 0 2000 340.483" xml:space="preserve">
<g id="name">
	<rect x="439.203" y="10.19" fill="none" width="738.346" height="249.412"/>
	<text transform="matrix(1 0 0 1 439.2026 204.2446)" fill="#4D4D4D" font-family="'Aller-Light'" font-size="263.3025">ALGO</text>
	<rect x="1246.896" y="10.314" fill="none" width="815.143" height="239.056"/>
	<text transform="matrix(1 0 0 1 1246.8965 204.3687)" fill="#4D4D4D" font-family="'Aller-Light'" font-size="263.3025">RITMO</text>
	<g>
		<path fill="#F15A24" d="M1239.939,201.398c-3.857,0.35-7.237,0.66-10.137,0.926c-2.894,0.263-5.7,0.522-8.428,0.789
			c-2.718,0.266-5.57,0.436-8.557,0.529c-2.982,0.082-6.489,0.129-10.531,0.129c-8.424,0-16.719-0.882-24.881-2.636
			c-8.16-1.753-15.489-4.781-21.984-9.077c-6.492-4.309-11.719-10.098-15.666-17.381c-3.951-7.288-5.928-16.458-5.928-27.518
			c0-6.842,1.23-13.082,3.688-18.692c2.462-5.625,5.662-10.668,9.612-15.143c3.947-4.472,8.511-8.337,13.69-11.581
			c5.181-3.254,10.493-5.928,15.933-8.03l2.104-0.794l-60.296-81.624c1.755-0.35,3.511-0.526,5.264-0.526c1.759,0,3.515,0,5.269,0
			c1.755,0,3.468,0,5.134,0c1.668,0,3.384,0.177,5.136,0.526l66.351,87.685v1.051l-5.795,1.579
			c-5.966,1.581-11.758,3.644-17.376,6.188s-10.572,5.615-14.873,9.219c-4.301,3.592-7.77,7.853-10.403,12.764
			c-2.636,4.918-3.949,10.708-3.949,17.38c0,13.694,4.215,23.962,12.638,30.81c8.425,6.841,19.839,10.268,34.229,10.268
			c3.685,0,7.109-0.089,10.27-0.263c3.159-0.178,6.938-0.529,11.32-1.057V11.295c1.23-0.169,2.726-0.302,4.479-0.395
			c1.756-0.085,3.336-0.132,4.736-0.132c1.584,0,3.164,0.047,4.74,0.132c1.579,0.092,2.989,0.226,4.213,0.395V201.398z"/>
	</g>
</g>
<g id="icon">
	<g id="Capa_4">
		<path d="M321.332,242.304c4.936,17.402,31.435,25.131,59.198,17.254c27.761-7.873,46.261-28.356,41.323-45.759
			c-4.934-17.392-31.443-25.124-59.198-17.248c-17.348,4.923-31.083,14.766-37.736,25.703
			C320.926,228.82,319.48,235.778,321.332,242.304z"/>
		<polygon points="422.651,220.743 416.063,220.743 416.063,13.217 422.651,6.629 		"/>
		<g>
			<g>
				<g>
					<path d="M346.971,205.323c2.86-1.474,2.514-4.549,1.574-7.177c-1.397-3.906-3.991-7.428-6.486-10.698
						c-2.206-2.89-4.453-5.792-6.752-8.608c-4.131-5.059-9.104-9.287-13.832-13.761c-2.364-2.237-4.651-4.555-6.743-7.051
						c-2.312-2.759-4.172-5.764-5.856-8.937c-3.393-6.394-6.438-12.999-10.511-19.006c-4.221-6.224-9.653-11.225-15.583-15.794
						c-1.954-1.507-4.146-2.97-6.727-2.317c-2.548,0.643-4.738,2.376-6.984,3.664c-0.249,0.141-0.5,0.277-0.753,0.41
						c-0.073,0.039,0.091,0.034,0.121,0.02c2.986-1.453,6.311-4.654,9.841-3.943c1.695,0.342,3.104,1.552,4.438,2.572
						c1.544,1.183,3.056,2.407,4.538,3.666c2.835,2.407,5.575,4.944,7.907,7.85c2.397,2.987,4.413,6.276,6.292,9.607
						c3.504,6.209,6.188,13.001,10.215,18.896c3.683,5.392,8.584,9.822,13.346,14.232c4.125,3.821,8.26,7.72,11.504,12.342
						c1.642,2.34,3.536,4.508,5.245,6.799c2.249,3.016,4.462,6.143,5.978,9.604c1.081,2.469,1.922,6.006-0.985,7.551
						C346.519,205.37,346.861,205.38,346.971,205.323L346.971,205.323z"/>
				</g>
			</g>
			<g>
				<g>
					<path d="M327.879,220.235c-1.058-0.079-2.142-0.468-3.168-0.718c-1.444-0.351-2.907-0.614-4.333-1.039
						c-1.907-0.568-3.581-1.492-4.766-3.119c-1.25-1.714-2.032-3.784-3.005-5.66c-1.394-2.688-3.477-4.785-5.8-6.69
						c-4.914-4.031-10.764-6.855-15.211-11.454c-4.339-4.486-6.812-10.404-11.52-14.546c-5.256-4.624-11.868-7.676-15.986-13.502
						c-1.822-2.577-3.22-5.427-4.917-8.084c-1.874-2.933-4.171-5.418-7.122-7.284c-0.073-0.046-0.336,0.039-0.291,0.07
						c5.049,3.471,7.619,8.655,10.745,13.716c1.546,2.502,3.369,4.7,5.637,6.576c2.465,2.038,5.145,3.812,7.714,5.713
						c2.534,1.875,5,3.904,6.964,6.387c1.938,2.449,3.452,5.24,5.325,7.745c1.878,2.514,4.049,4.764,6.536,6.679
						c2.475,1.905,5.148,3.558,7.71,5.343c2.944,2.051,5.887,4.274,8.076,7.152c1.723,2.265,2.551,5.067,4.035,7.478
						c1.21,1.964,3.06,3.029,5.213,3.724c1.323,0.427,2.695,0.674,4.046,0.996c1.202,0.286,2.463,0.729,3.705,0.792
						C327.609,220.515,328.21,220.259,327.879,220.235L327.879,220.235z"/>
				</g>
			</g>
			<g>
				<g>
					<path d="M329.668,250.943c-2.119,5.253-7.121,8.43-12.103,10.624c-4.879,2.147-10.187,3.463-15.468,4.119
						c-6.043,0.751-12.262,1.209-17.662,4.285c-2.473,1.408-4.727,3.296-6.418,5.59c-1.732,2.35-2.79,5.138-3.731,7.876
						c-1.861,5.41-3.46,10.843-7.422,15.162c-3.769,4.108-9.033,6.519-13.614,9.564c-0.152,0.102-0.096,0.19,0.059,0.092
						c4.88-3.097,10.259-5.616,14.222-9.936c4.185-4.563,5.707-10.5,7.723-16.18c1.073-3.021,2.43-5.962,4.632-8.335
						c2.526-2.723,5.985-4.56,9.507-5.62c5.558-1.674,11.5-1.642,17.167-2.817c4.896-1.016,9.726-2.597,14.124-4.997
						c3.943-2.152,7.799-5.286,9.387-9.623C330.129,250.588,329.713,250.833,329.668,250.943L329.668,250.943z"/>
				</g>
			</g>
			<g>
				<g>
					<path d="M326.06,246.102c-3.063,1.304-5.421,3.852-8.25,5.559c-3.253,1.964-6.866,3.283-10.472,4.43
						c-3.263,1.037-6.572,2.034-9.881,2.909c-3.626,0.96-7.353,1.495-11.031,2.208c-3.422,0.664-6.799,1.531-10.007,2.915
						c-2.486,1.072-4.972,2.062-7.593,2.764c-6.551,1.756-13.63,1.532-19.591-1.934c-0.042-0.024-0.185,0.088-0.143,0.113
						c5.673,3.375,12.096,3.809,18.441,2.403c2.569-0.568,5.067-1.446,7.488-2.471c3.342-1.414,6.677-2.49,10.235-3.229
						c3.672-0.762,7.387-1.294,11.038-2.164c3.479-0.828,6.934-1.943,10.35-3c3.185-0.984,6.317-2.135,9.291-3.649
						c3.282-1.673,5.881-4.21,8.993-6.125c0.354-0.218,0.726-0.408,1.097-0.596C326.089,246.203,326.213,246.037,326.06,246.102
						L326.06,246.102z"/>
				</g>
			</g>
			<g>
				<g>
					<path d="M364.396,197.063c-0.234,0.835-0.881-0.216-1.062-0.451c-0.339-0.441-0.656-0.896-1.012-1.325
						c-0.751-0.904-1.939-1.521-2.985-2.009c-2.644-1.234-5.845-1.171-8.688-1.016c-3.537,0.193-7.029,0.681-10.531-0.124
						c-2.789-0.642-5.662-1.837-8.302-2.923c-2.248-0.924-4.424-2.084-6.206-3.758c-2.084-1.957-2.932-4.544-3.292-7.313
						c-0.864-6.648,1.761-13.693-0.873-20.113c-0.018-0.043-0.183,0.015-0.17,0.059c2.12,7.084-0.367,14.271,0.882,21.418
						c0.988,5.65,5.592,8.414,10.566,10.338c2.577,0.996,5.297,2.103,8.008,2.641c3.491,0.693,7.113,0.053,10.624-0.105
						c3.554-0.159,6.962,0.206,9.931,2.282c0.976,0.683,1.522,1.73,2.301,2.602c0.181,0.203,0.469,0.44,0.731,0.226
						c0.146-0.119,0.166-0.302,0.198-0.478C364.523,196.982,364.405,197.029,364.396,197.063L364.396,197.063z"/>
				</g>
			</g>
			<g>
				<g>
					<path d="M339.809,208.504c-2.334-2.516-5.007-4.914-6.267-8.189c-1.285-3.338,0.168-6.524,0.484-9.866
						c0.004-0.046-0.071-0.056-0.081-0.011c-0.715,3.324-1.708,6.581-0.555,9.919c1.141,3.305,3.984,5.783,6.297,8.269
						C339.764,208.707,339.885,208.585,339.809,208.504L339.809,208.504z"/>
				</g>
			</g>
			<g>
				<g>
					<path d="M291.978,192.252c1.591-1.201,2.467-2.731,2.811-4.688c0.299-1.702,0.103-3.478,0.638-5.139
						c1.014-3.148,4.923-2.614,7.357-1.699c2.165,0.814,4.335,1.979,6.271,3.241c3.563,2.322,6.521,5.391,10.872,6.17
						c1.827,0.327,3.572,0.104,5.37-0.262c1.872-0.381,4.244-1.327,6.153-0.756c0.035,0.01,0.172-0.064,0.133-0.088
						c-1.21-0.712-3.27,0.01-4.525,0.276c-2.433,0.516-4.671,0.968-7.156,0.527c-4.972-0.882-8.485-5.198-12.848-7.405
						c-3.098-1.567-7.82-4.186-11.009-1.402c-1.204,1.051-1.282,2.851-1.368,4.325c-0.16,2.727-0.609,5.091-2.86,6.904
						C291.732,192.326,291.941,192.28,291.978,192.252L291.978,192.252z"/>
				</g>
			</g>
		</g>
		<g>
			<g>
				<path d="M410.394,268.384c-0.929-1.1-2.139-1.847-3.338-2.615c-1.515-0.971-2.883-2.129-4.482-2.972
					c-3.009-1.586-6.386-1.058-9.551-0.265c-3.482,0.873-6.664,2.907-10.287,3.14c-3.955,0.253-6.729-2.237-8.545-5.489
					c-0.033-0.06-0.281-0.088-0.256-0.029c2.317,5.369,7.834,6.692,13.003,4.813c4.136-1.503,8.561-3.805,13.113-2.907
					c2.058,0.405,3.91,1.751,5.537,3.007c1.506,1.161,3.349,1.908,4.615,3.364C410.239,268.472,410.425,268.422,410.394,268.384
					L410.394,268.384z"/>
			</g>
		</g>
		<g>
			<g>
				<path d="M391.457,310.803c1.128-1.07,1.316-2.716,1.368-4.192c0.076-2.192-0.322-4.412-0.807-6.54
					c-1.189-5.216-4.104-9.52-7.027-13.917c-1.715-2.578-3.18-5.021-3.84-8.08c-0.621-2.877-0.688-5.855-0.985-8.774
					c-0.295-2.897-0.871-5.729-2.265-8.311c-1.425-2.642-3.461-4.889-4.571-7.711c-0.045-0.114-0.474-0.041-0.449,0.063
					c0.651,2.71,2.438,4.817,3.88,7.139c1.542,2.481,2.227,5.288,2.613,8.155c0.376,2.793,0.48,5.614,0.996,8.39
					c0.566,3.047,1.84,5.593,3.533,8.158c2.929,4.439,6.12,8.713,7.533,13.919c0.544,2.008,0.924,4.07,1.069,6.146
					c0.125,1.798,0.141,4.21-1.244,5.579C391.165,310.92,391.416,310.842,391.457,310.803L391.457,310.803z"/>
			</g>
		</g>
		<g>
			<g>
				<path d="M268.58,320.958c3.959-5.34,10.034-8.118,16.131-10.293c2.759-0.984,5.56-1.846,8.327-2.807
					c1.484-0.516,2.936-1.129,4.426-1.626c1.977-0.66,4.052-0.999,6.11-1.289c3.467-0.487,6.938-0.797,10.311-1.787
					c3.791-1.113,7.571-2.089,11.43-2.946c3.666-0.814,7.267-1.812,10.871-2.861c3.173-0.925,6.311-1.989,9.207-3.606
					c3.828-2.137,6.946-5.381,9.874-8.588c2.938-3.218,6-6.247,7.773-10.292c1.65-3.763,2.046-7.884,3.439-11.724
					c0.675-1.861,1.653-3.633,3.141-4.965c1.747-1.564,4.459-1.733,6.544-2.729c0.185-0.089,0.235-0.276-0.021-0.176
					c-2.784,1.093-5.737,1.378-7.889,3.639c-1.832,1.925-2.735,4.625-3.404,7.138c-0.815,3.064-1.38,6.143-2.613,9.085
					c-1.454,3.468-3.981,6.032-6.452,8.786c-2.488,2.772-5.017,5.533-7.98,7.811c-3.073,2.363-6.618,3.779-10.293,4.917
					c-3.528,1.092-7.093,2.096-10.692,2.926c-3.852,0.888-7.726,1.669-11.505,2.839c-5.081,1.572-10.354,1.67-15.491,2.93
					c-2.069,0.507-4.007,1.312-6.001,2.04c-1.974,0.721-3.972,1.372-5.962,2.045c-7.114,2.409-14.864,5.208-19.411,11.566
					C268.396,321.063,268.556,320.99,268.58,320.958L268.58,320.958z"/>
			</g>
		</g>
	</g>
	<g id="neuron">
		<g>
			<g>
				<path d="M228.39,190.239c-0.158,3.236-1.362,6.228-2.155,9.334c-0.794,3.114-0.692,6.18,0.339,9.226
					c1.804,5.326,6.261,9.119,9.806,13.273c2.107,2.47,3.682,5.114,4.78,8.174c1.114,3.106,1.677,6.387,2.051,9.654
					c0.762,6.65,0.591,13.379,1.662,19.997c1.023,6.321,3.389,12.125,8.574,16.108c4.938,3.794,11.064,5.539,16.351,8.732
					c4.403,2.659,7.013,7.189,10.625,10.727c3.17,3.104,6.555,5.444,11.064,6.026c3.312,0.428,6.705-0.17,9.852-1.194
					c0.08-0.026,0.299-0.218,0.098-0.162c-5.723,1.609-11.625,1.778-16.692-1.671c-3.67-2.499-6.377-6.116-9.219-9.456
					c-2.139-2.514-4.591-4.303-7.516-5.817c-2.758-1.429-5.628-2.637-8.405-4.028c-2.714-1.36-5.316-2.951-7.54-5.033
					c-2.459-2.304-4.015-5.225-5.109-8.375c-4.367-12.573-0.61-26.694-6.526-38.902c-2.459-5.075-7.238-8.633-10.508-13.143
					c-1.785-2.462-3.008-5.229-3.503-8.233c-0.567-3.444,0.605-6.813,1.528-10.079c0.49-1.734,0.846-3.476,0.815-5.282
					C228.762,190.002,228.395,190.136,228.39,190.239L228.39,190.239z"/>
			</g>
		</g>
		<g>
			<g>
				<path d="M222.399,197.384c-0.965,3.626-2.715,6.958-4.451,10.261c-1.615,3.075-2.883,6.253-4.314,9.411
					c-2.913,6.429-6.6,12.814-11.689,17.77c-4.952,4.821-10.961,8.796-16.831,12.413c-6.164,3.799-12.83,7.028-19.422,10.013
					c-5.236,2.37-10.864,4.454-14.922,8.692c-3.881,4.053-8.519,9.433-14.614,6.235c-0.054-0.028-0.231,0.109-0.179,0.141
					c4.679,2.772,9.089-0.318,12.445-3.641c2.159-2.137,4.042-4.332,6.625-5.999c2.87-1.851,6.059-3.18,9.172-4.557
					c12.377-5.473,24.551-11.971,35.039-20.599c6.016-4.949,10.251-11.289,13.685-18.227c1.794-3.625,3.158-7.429,5.018-11.021
					c1.845-3.563,3.816-7.097,4.705-11.043C222.678,197.179,222.422,197.299,222.399,197.384L222.399,197.384z"/>
			</g>
		</g>
		<g>
			<g>
				<path d="M232.01,154.81c-0.065-2.907-0.065-5.773,0.776-8.585c0.867-2.895,2.51-5.67,3.99-8.283
					c0.893-1.577,1.883-3.096,2.952-4.56c1.393-1.906,3.043-3.267,5.006-4.545c2.389-1.557,4.375-3.278,6.122-5.534
					c2.045-2.64,3.85-5.458,6.229-7.823c1.925-1.912,4.184-2.498,6.795-2.965c2.551-0.456,5.153-0.668,7.741-0.755
					c1.856-0.062,3.777-0.112,5.618,0.186c0.04,0.007,0.155-0.085,0.125-0.092c-1.687-0.394-3.494-0.345-5.213-0.303
					c-2.418,0.059-4.838,0.275-7.229,0.638c-1.868,0.283-3.838,0.639-5.565,1.437c-2.152,0.994-3.782,3.126-5.246,4.914
					c-1.916,2.341-3.494,4.957-5.601,7.14c-2.394,2.479-5.696,3.782-8.045,6.319c-2.424,2.618-4.194,6.037-5.799,9.192
					c-1.152,2.265-2.251,4.467-2.743,6.982c-0.431,2.204-0.383,4.528-0.13,6.75C231.799,154.99,232.011,154.875,232.01,154.81
					L232.01,154.81z"/>
			</g>
		</g>
		<g>
			<g>
				<path d="M224.451,151.72c9.023-4.57,11.327-14.63,14.03-23.513c0.602-1.978,1.262-3.957,2.25-5.779
					c1.714-3.162,4.363-5.966,6.674-8.7c2.281-2.697,4.844-5.422,6.514-8.556c1.659-3.112,1.932-6.724,3.256-9.961
					c1.127-2.754,4.038-4.833,6.377-6.505c2.356-1.685,4.908-3.008,7.371-4.519c4.156-2.549,7.161-5.989,9.635-10.162
					c0.074-0.125-0.172,0.004-0.206,0.058c-1.613,2.558-3.351,5.036-5.598,7.08c-2.143,1.949-4.69,3.278-7.169,4.732
					c-2.532,1.485-4.985,3.135-7.204,5.062c-2.212,1.921-3.617,3.936-4.45,6.743c-0.474,1.596-0.819,3.227-1.314,4.817
					c-0.677,2.18-1.781,3.985-3.147,5.796c-2.227,2.951-4.711,5.699-7.047,8.563c-1.798,2.204-3.675,4.477-4.845,7.09
					c-0.83,1.854-1.408,3.82-1.979,5.766c-2.43,8.275-4.862,17.583-13.136,21.898C224.389,151.669,224.321,151.786,224.451,151.72
					L224.451,151.72z"/>
			</g>
		</g>
		<g>
			<g>
				<path d="M236.717,189.901c-9.243,9.747,1.456,23.372,5.443,32.926c2.656,6.363,3.736,13.17,4.073,20.021
					c0.367,7.461-0.151,14.914,1.375,22.282c0.334,1.613,0.835,3.17,1.419,4.707c0.025,0.067,0.294-0.034,0.272-0.107
					c-2.196-7.285-2.231-14.824-2.304-22.359c-0.067-6.914-0.612-13.837-2.624-20.483c-1.908-6.306-5.526-11.813-8.103-17.833
					c-2.445-5.713-4.107-12.518-0.274-18.019c0.284-0.407,0.604-0.79,0.928-1.165C237.023,189.755,236.758,189.858,236.717,189.901
					L236.717,189.901z"/>
			</g>
		</g>
		<g>
			<path d="M226.522,207.515c-1.415-9.995-6.563-2.935-7.69-1.288c1.128-3.34,2.69-7.368,2.88-8.026
				c0.516-1.804,0.479-3.754,0.272-4.628c-0.506-2.145-0.634-2.794-1.767-4.697c-1.918-3.217-4.751-5.773-7.506-8.269
				c-2.841-2.58-5.631-5.198-8.067-8.171c-2.444-2.99-4.733-4.943-7.226-7.897c-2.9-3.437-5.98-7.864-9.12-11.079
				c2.655,1.299,5.345,2.558,8.274,3.097c3.003,0.548,6.06,0.33,9.063-0.091c3.155-0.45,6.292-1.055,9.409-1.707
				c2.871-0.594,5.754-1.291,8.409-2.57c2.864-1.385,6.958-4.015,9.532-7.824c-2.212,5.763-1.243,8.675-0.357,11.75
				c0.792,2.752,2.479,4.639,4.563,6.509c4.756,4.255,10.668,12.001,12.173,14.442c3.112,5.042,11.378,11.453,13.625,14.344
				c-10.858-4.737-19.18-6.609-24.295-2.525c-5.047,4.036-8.144,10.044-7.768,16.215c0.252,4.176-0.3,7.229,2.482,13.232
				c-3.197-4.861-2.911-4.313-4.181-7.362c-1.804-4.335-1.122-6.83-2.37-10.404"/>
			<g>
				<path d="M226.639,207.461c-0.219-1.969-0.921-6.389-3.911-5.136c-1.774,0.744-3.075,2.441-4.135,3.982
					c0.164-0.065,0.328-0.132,0.491-0.197c0.808-2.375,1.69-4.725,2.549-7.081c0.646-1.771,0.973-3.728,0.592-5.598
					c-1.122-5.513-5.258-9.329-9.267-12.962c-2.27-2.057-4.499-4.158-6.561-6.425c-2.105-2.315-4.121-4.684-6.286-6.947
					c-4.151-4.342-7.383-9.458-11.553-13.78c-0.167,0.101-0.333,0.202-0.5,0.303c4.07,1.987,8.013,3.467,12.602,3.432
					c4.611-0.036,9.263-1.091,13.759-2.021c3.845-0.796,7.562-1.794,10.987-3.764c3.057-1.758,5.826-4.085,7.844-6.991
					c-0.182,0.071-0.364,0.142-0.546,0.212c-1.734,4.621-1.785,9.503,0.531,13.952c1.315,2.528,3.695,4.262,5.662,6.245
					c2.01,2.026,3.867,4.206,5.664,6.421c2.753,3.395,4.979,7.202,7.952,10.406c1.86,2.004,3.873,3.863,5.868,5.729
					c1.48,1.385,3.054,2.746,4.319,4.339c0.184-0.122,0.368-0.244,0.552-0.367c-5.068-2.202-10.428-4.363-16-4.746
					c-4.208-0.29-7.575,1.111-10.558,4.02c-3.757,3.662-6.109,8.713-6.093,13.986c0.006,2.116,0.082,4.292,0.289,6.398
					c0.263,2.67,1.126,5.206,2.236,7.636c0.188-0.118,0.375-0.237,0.563-0.355c-1.432-2.169-2.888-4.246-3.891-6.649
					c-0.816-1.956-1.372-3.896-1.661-5.999c-0.24-1.743-0.458-3.419-1.055-5.085c-0.036-0.102-0.497,0.141-0.45,0.289
					c0.583,1.879,0.754,3.823,1.038,5.761c0.274,1.877,0.85,3.638,1.576,5.385c0.999,2.402,2.457,4.483,3.88,6.654
					c0.091,0.14,0.635-0.197,0.563-0.355c-1.013-2.234-1.795-4.528-2.138-6.964c-0.262-1.859-0.221-3.747-0.298-5.619
					c-0.211-5.113,1.27-9.708,4.546-13.678c1.514-1.833,3.364-3.557,5.622-4.39c1.916-0.708,4.029-0.742,6.04-0.573
					c5.29,0.446,10.447,2.585,15.265,4.674c0.122,0.053,0.657-0.234,0.552-0.367c-1.199-1.507-2.681-2.796-4.084-4.104
					c-1.995-1.861-3.997-3.715-5.883-5.688c-3.023-3.161-5.248-6.969-7.971-10.383c-1.703-2.135-3.491-4.205-5.379-6.179
					c-1.943-2.032-4.231-3.74-5.786-6.114c-1.224-1.869-1.842-4.332-2.149-6.533c-0.382-2.731,0.289-5.45,1.24-7.996
					c0.05-0.134-0.484,0.123-0.546,0.212c-2.042,2.947-4.873,5.212-7.984,6.952c-3.665,2.051-7.805,2.842-11.877,3.659
					c-4.184,0.839-8.465,1.687-12.747,1.644c-4.167-0.042-7.893-1.613-11.574-3.407c-0.11-0.054-0.593,0.207-0.5,0.303
					c4.071,4.215,7.249,9.188,11.263,13.454c4.138,4.397,8.023,8.984,12.482,13.068c3.83,3.507,8.361,7.202,9.691,12.46
					c1.219,4.815-1.378,9.299-2.894,13.76c-0.043,0.127,0.438-0.121,0.491-0.197c0.909-1.321,2.006-2.807,3.481-3.521
					c2.654-1.282,3.551,3.37,3.855,4.957C226.417,207.628,226.646,207.527,226.639,207.461L226.639,207.461z"/>
			</g>
		</g>
		<g>
			<g>
				<path d="M198.405,163.701c-3.88-5.277-8.866-9.491-14.338-13.04c-5.276-3.422-10.903-6.208-15.94-10.004
					c-5.692-4.289-10.747-9.369-15.677-14.494c-2.438-2.534-4.847-5.096-7.294-7.621c-2.566-2.646-5.36-4.983-8.257-7.258
					c-2.318-1.819-4.637-3.638-6.811-5.631c-2.03-1.862-3.958-3.788-6.146-5.474c-4.888-3.765-10.132-6.898-15.478-9.961
					c-2.611-1.496-5.256-2.939-7.846-4.473c-1.341-0.793-2.392-1.922-3.3-3.172c-2.651-3.65-5.017-7.328-8.175-10.597
					c-0.096-0.099-0.237,0.047-0.149,0.149c2.098,2.447,4.08,4.996,5.798,7.726c0.984,1.563,1.955,3.17,3.195,4.548
					c1.667,1.852,4.064,2.92,6.182,4.147c3.297,1.91,6.62,3.775,9.89,5.732c3.164,1.894,6.263,3.925,9.145,6.23
					c2.694,2.155,5.072,4.631,7.655,6.907c2.745,2.42,5.713,4.571,8.54,6.893c2.811,2.308,5.307,4.912,7.815,7.537
					c7.872,8.235,15.681,16.693,25.343,22.879c4.141,2.65,8.545,4.853,12.636,7.594c4.846,3.246,9.152,7.146,12.821,11.684
					C198.19,164.223,198.573,163.929,198.405,163.701L198.405,163.701z"/>
			</g>
		</g>
		<g>
			<g>
				<path d="M211.212,156.281c-3.484-0.013-6.984,0.145-10.462-0.117c-3.14-0.235-5.794-1.412-8.615-2.717
					c-6.456-2.986-11.87-7.236-17.255-11.831c-5.857-4.998-11.508-10.112-17.905-14.424c-3.064-2.065-6.168-4.07-9.126-6.287
					c-2.977-2.23-5.485-4.761-7.924-7.555c-2.713-3.109-5.945-5.554-9.074-8.221c-2.511-2.141-5.057-4.235-7.73-6.172
					c-5.348-3.873-11.18-7.154-17.018-10.217c-0.183-0.096-0.338,0.169-0.162,0.277c4.972,3.049,10.066,5.891,14.855,9.229
					c4.779,3.332,9.073,7.247,13.595,10.904c2.804,2.268,5.011,4.967,7.449,7.602c2.374,2.564,5.238,4.672,8.084,6.678
					c3.033,2.138,6.169,4.123,9.213,6.244c3.277,2.283,6.285,4.861,9.302,7.472c6.664,5.766,13.186,11.979,21.133,15.953
					c2.957,1.479,6.048,3.058,9.341,3.567c4.047,0.625,8.236,0.178,12.299-0.031C211.44,156.625,211.443,156.282,211.212,156.281
					L211.212,156.281z"/>
			</g>
		</g>
		<g>
			<g>
				<path d="M88.126,127.467c4.712,1.171,9.402-1.125,13.25-3.651c4.646-3.049,8.665-6.933,12.869-10.534
					c2.369-2.029,4.934-4.04,7.875-5.164c2.61-0.997,5.624-1.106,8.332-0.497c2.096,0.472,3.611,1.641,5.102,3.097
					c1.112,1.087,2.312,2.083,3.421,3.17c0.08,0.078,0.417,0.013,0.369-0.035c-2.172-2.128-3.989-4.743-6.879-5.941
					c-4.139-1.717-9.217-0.995-13.047,1.126c-2.666,1.476-4.978,3.564-7.214,5.608c-2.25,2.055-4.508,4.078-6.882,5.99
					c-4.696,3.781-10.748,8.157-17.123,6.789C88.161,127.416,88.035,127.445,88.126,127.467L88.126,127.467z"/>
			</g>
		</g>
		<g>
			<g>
				<path d="M119.384,23.804c-0.897,3.385-1.154,6.842-0.646,10.313c0.493,3.357,1.982,6.346,3.888,9.115
					c1.905,2.767,4.184,5.253,6.176,7.956c2.043,2.772,3.842,5.712,5.447,8.758c3.297,6.256,5.491,13.146,6.065,20.208
					c0.285,3.501,0.097,7.042-0.531,10.497c-0.61,3.356-1.992,6.469-2.745,9.783c-1.438,6.336,0.615,12.217,5.293,16.659
					c0.274,0.261,0.647-0.127,0.409-0.408c-2.165-2.556-4.087-5.212-4.938-8.499c-0.769-2.966-0.359-6.07,0.429-8.983
					c0.906-3.351,2.13-6.494,2.642-9.955c0.485-3.281,0.502-6.609,0.185-9.907c-0.64-6.643-2.851-13.058-5.9-18.964
					c-1.586-3.071-3.479-5.968-5.534-8.744c-2-2.702-4.263-5.194-6.269-7.891c-1.983-2.667-3.499-5.543-4.188-8.813
					c-0.766-3.631-0.475-7.497,0.365-11.085C119.553,23.749,119.409,23.709,119.384,23.804L119.384,23.804z"/>
			</g>
		</g>
		<g>
			<g>
				<path d="M11.513,122.29c2.884,1.717,6.226,2.383,9.505,2.886c3.339,0.511,6.555,0.931,9.905,0.256
					c3.351-0.676,6.292-2.363,9.284-3.934c1.725-0.905,3.488-1.729,5.342-2.335c2.025-0.661,4.107-0.729,6.217-0.742
					c3.723-0.022,7.375,0.158,10.962-1.026c2.89-0.954,5.596-2.376,8.123-4.061c2.641-1.761,5.147-3.87,7.325-6.178
					c2.314-2.453,4.086-5.367,6.024-8.109c2.023-2.862,4.394-5.641,7.252-7.703c2.41-1.739,5.226-2.267,8.143-2.292
					c0.984-0.008,2.058-0.081,2.996,0.248c0.818,0.286,1.631,0.587,2.443,0.889c1.508,0.561,3.067,0.995,4.571,1.548
					c0.148,0.055,0.542-0.314,0.42-0.359c-1.308-0.481-2.58-1.086-3.901-1.557c-1.388-0.494-2.766-1.171-4.247-1.244
					c-2.497-0.123-5.028-0.013-7.399,0.843c-2.076,0.75-3.858,2.106-5.463,3.591c-5.088,4.703-7.927,11.2-13.009,15.882
					c-2.696,2.483-5.646,4.685-8.916,6.355c-3.58,1.83-7.262,2.685-11.273,2.732c-3.916,0.046-7.596-0.135-11.313,1.302
					c-3.796,1.467-7.143,3.874-10.979,5.248c-3.847,1.377-7.584,1.153-11.558,0.617c-3.558-0.48-7.199-1.116-10.329-2.972
					C11.6,122.152,11.471,122.265,11.513,122.29L11.513,122.29z"/>
			</g>
		</g>
		<g>
			<g>
				<path d="M30.862,102.51c2.983,1.191,6.19,0.913,9.284,0.36c3.004-0.536,5.983-1.225,8.761-2.515
					c5.354-2.485,8.749-6.964,11.262-12.155c2.566-5.3,4.493-11.048,8.913-15.166c2.822-2.629,7.184-5.14,11.133-4.859
					c2.689,0.191,5.41,2.325,7.591,3.757c1.706,1.12,3.503,2.293,4.775,3.915c1.464,1.868,2.273,4.216,3.605,6.188
					c0.08,0.118,0.547-0.116,0.49-0.242c-1.066-2.375-1.99-4.954-3.734-6.934c-1.524-1.731-3.747-2.98-5.683-4.184
					c-2.143-1.331-4.294-2.759-6.873-2.949c-3.117-0.229-6.182,1.381-8.762,2.934c-5.198,3.128-7.907,8.185-10.264,13.582
					c-1.166,2.669-2.316,5.343-3.784,7.863c-1.794,3.079-4.254,5.571-7.335,7.371c-2.817,1.646-5.951,2.392-9.113,3.042
					c-3.329,0.686-6.875,1.138-10.131-0.097C30.954,102.404,30.83,102.498,30.862,102.51L30.862,102.51z"/>
			</g>
		</g>
		<g>
			<g>
				<path d="M13.895,85.774c5.061,1.668,8.941-1.66,12.085-5.274c1.743-2.003,3.347-4.194,5.374-5.927
					c2.567-2.197,6.083-2.694,8.95-4.361c2.7-1.569,4.812-3.971,7.362-5.753c3.222-2.252,6.713-2.102,10.474-1.983
					c1.744,0.056,3.445-0.125,5.182-0.215c2.079-0.108,4.173,0.033,6.232,0.327c3.25,0.464,6.647,1.421,9.531,3.016
					c1.798,0.995,3.139,2.5,4.74,3.748c1.424,1.109,3.067,1.807,4.6,2.733c1.417,0.857,2.821,2.034,4.027,3.177
					c1.29,1.222,2.033,2.814,2.723,4.42c0.085,0.198,0.39,0.054,0.339-0.143c-0.654-2.543-1.975-4.366-4.012-5.968
					c-1.075-0.845-2.089-1.775-3.295-2.435c-1.562-0.853-3.1-1.677-4.48-2.814c-1.141-0.94-2.141-1.99-3.37-2.828
					c-1.17-0.797-2.475-1.374-3.795-1.872c-3.227-1.218-6.632-1.932-10.07-2.163c-1.794-0.12-3.582-0.037-5.369,0.127
					c-1.854,0.169-3.734,0.006-5.591-0.03c-3.366-0.065-6.164,0.616-8.881,2.643c-2.508,1.87-4.6,4.22-7.336,5.785
					c-2.74,1.566-5.829,2.192-8.307,4.242c-2.685,2.22-4.528,5.44-6.956,7.932c-2.729,2.801-6.159,4.643-10.127,3.511
					C13.856,85.649,13.829,85.752,13.895,85.774L13.895,85.774z"/>
			</g>
		</g>
		<g>
			<g>
				<path d="M78.28,23.274c0.007,0,0.007-0.004,0-0.004S78.273,23.274,78.28,23.274L78.28,23.274z"/>
			</g>
		</g>
		<g>
			<g>
				<path d="M77.52,23.544c1.224,5.808,5.068,10.354,8.443,15.054c3.581,4.987,5.896,10.744,6.566,16.856
					c0.511,4.664-0.04,9.396,0.292,14.077c0.358,5.046,1.466,10.98,5.017,14.834c0.063,0.068,0.44,0.056,0.384-0.037
					c-1.383-2.289-2.561-4.501-3.33-7.084c-0.744-2.502-1.1-5.116-1.3-7.713c-0.362-4.688,0.18-9.402-0.312-14.077
					c-0.62-5.895-2.991-11.489-6.49-16.245c-3.591-4.881-7.63-9.649-9.117-15.666C77.661,23.502,77.513,23.514,77.52,23.544
					L77.52,23.544z"/>
			</g>
		</g>
		<g>
			<g>
				<path d="M48.61,34.946c2.721,1.736,4.863,4.357,6.795,6.909c0.998,1.317,1.824,2.75,2.379,4.31
					c0.583,1.638,0.708,3.427,0.959,5.136c0.824,5.589,4.646,9.889,10.044,11.504c0.031,0.009,0.191-0.009,0.113-0.04
					c-2.642-1.038-4.991-2.342-6.852-4.533c-2.116-2.49-2.769-5.493-3.198-8.642c-0.425-3.119-1.466-5.614-3.413-8.092
					c-1.919-2.442-4.059-4.918-6.714-6.576C48.698,34.905,48.573,34.922,48.61,34.946L48.61,34.946z"/>
			</g>
		</g>
		<g>
			<g>
				<path d="M340.571,331.173c-2.611-2.008-5.371-3.865-7.729-6.179c-2.746-2.692-4.034-6.167-5.423-9.661
					c-2.572-6.472-7.401-11.672-12.349-16.457c-5.039-4.873-10.511-9.264-16.02-13.588c-2.632-2.065-5.385-3.98-7.481-6.624
					c-1.826-2.303-3.066-5.021-3.878-7.832c-1.623-5.62-1.431-11.651-0.929-17.418c0.271-3.112,0.724-6.204,1.01-9.314
					c0.343-3.724,0.402-7.473,0.202-11.206c-0.393-7.339-1.947-14.803-5.098-21.472c-1.378-2.917-3.303-5.527-5.383-7.979
					c-2.045-2.411-4.16-4.958-6.474-7.112c-3.063-2.851-6.915-4.949-10.486-7.085c-5.097-3.048-10.136-6.2-15.121-9.428
					c-0.115-0.074-0.557,0.102-0.466,0.168c5.63,4.169,11.721,7.656,17.688,11.311c2.454,1.504,4.917,3.055,7.123,4.911
					c2.342,1.972,4.344,4.555,6.36,6.854c2.273,2.592,4.313,5.36,5.833,8.465c1.603,3.272,2.692,6.844,3.533,10.38
					c1.72,7.242,2.003,14.789,1.365,22.186c-0.973,11.274-3.683,24.077,3.432,34.031c1.806,2.525,4.247,4.342,6.666,6.234
					c2.801,2.191,5.594,4.393,8.341,6.651c5.625,4.625,11.046,9.532,15.769,15.09c1.847,2.172,3.582,4.405,4.849,6.971
					c1.265,2.562,2.155,5.288,3.467,7.828c2.407,4.661,7.009,7.293,11.067,10.328C340.473,331.25,340.597,331.193,340.571,331.173
					L340.571,331.173z"/>
			</g>
		</g>
		<g>
			<g>
				<path d="M118.197,16.11c-5.554,6.693-7.389,15.437-12.381,22.457c-1.252,1.761-2.792,3.324-4.184,4.974
					c-1.358,1.609-2.644,3.274-3.826,5.018c-2.245,3.312-4.559,7.614-4.735,11.701c-0.008,0.197,0.272,0.219,0.33,0.044
					c0.713-2.16,1.165-4.328,2.088-6.428c0.825-1.877,1.881-3.649,3.023-5.349c2.312-3.443,5.26-6.383,7.638-9.764
					c2.301-3.271,3.833-7.046,5.445-10.682c1.843-4.155,3.859-8.306,6.654-11.918C118.278,16.125,118.229,16.073,118.197,16.11
					L118.197,16.11z"/>
			</g>
		</g>
	</g>
</g>
</svg>
